<?xml version="1.0" encoding="utf-8"?>
<!-- Generator: Adobe Illustrator 19.2.1, SVG Export Plug-In . SVG Version: 6.00 Build 0)  -->
<svg version="1.1" id="Layer_1" xmlns="http://www.w3.org/2000/svg" xmlns:xlink="http://www.w3.org/1999/xlink" x="0px" y="0px"
	 viewBox="0 0 28.9 28.9" style="enable-background:new 0 0 28.9 28.9;" xml:space="preserve">
<style type="text/css">
	.st0{fill:#3D61FE;}
</style>
<title>cross</title>
<path class="st0" d="M28,4.5l-3.6-3.6c-0.2-0.2-0.6-0.2-0.9,0l-8.6,8.6c-0.2,0.2-0.6,0.2-0.9,0L5.4,0.9c-0.2-0.2-0.6-0.2-0.9,0
	L0.9,4.5c-0.2,0.2-0.2,0.6,0,0.9L9.5,14c0.2,0.2,0.2,0.6,0,0.9l-8.6,8.6c-0.2,0.2-0.2,0.6,0,0.9L4.5,28c0.2,0.2,0.6,0.2,0.9,0
	l8.6-8.6c0.2-0.2,0.6-0.2,0.9,0l8.6,8.6c0.2,0.2,0.6,0.2,0.9,0l3.6-3.6c0.2-0.2,0.2-0.6,0-0.9l-8.6-8.6c-0.2-0.2-0.2-0.6,0-0.9
	L28,5.4C28.2,5.1,28.2,4.7,28,4.5z"/>
</svg>
