<svg id="Layer_1" data-name="Layer 1" xmlns="http://www.w3.org/2000/svg" xmlns:xlink="http://www.w3.org/1999/xlink" viewBox="0 0 63.33 68"><defs><clipPath id="clip-path" transform="translate(-2.67 -2.75)"><ellipse cx="34.33" cy="35.4" rx="31.67" ry="32.65" style="fill:none"/></clipPath><clipPath id="clip-path-2" transform="translate(-2.67 -2.75)"><rect x="6.66" y="7.14" width="47.38" height="63.14" style="fill:none"/></clipPath><clipPath id="clip-path-3" transform="translate(-2.67 -2.75)"><path d="M28.76,35.32a0.62,0.62,0,0,0,0-1.24,0.62,0.62,0,0,0,0,1.24" style="fill:none;clip-rule:evenodd"/></clipPath><clipPath id="clip-path-4" transform="translate(-2.67 -2.75)"><rect x="14.63" y="9.28" width="39.4" height="55.16" style="fill:none"/></clipPath><clipPath id="clip-path-5" transform="translate(-2.67 -2.75)"><rect x="14.33" y="51.31" width="40.01" height="17.71" style="fill:none"/></clipPath><clipPath id="clip-path-6" transform="translate(-2.67 -2.75)"><path d="M43.72,52.13A16.13,16.13,0,0,1,51,54.7c2.79,1.9,3.17,12.88,3.09,14.08l-19.48-.21-20.32.21c-0.08-1.21,1.35-12.14,3.09-14.08,2.8-3.13,7.81-3.13,7.81-3.13" style="fill:none;clip-rule:evenodd"/></clipPath><clipPath id="clip-path-8" transform="translate(-2.67 -2.75)"><path d="M42.54,54.91A9.21,9.21,0,0,1,35,58.55c-4.3.07-5.71,0-7.27-1a5.53,5.53,0,0,1-2.39-6.07h3.15c1.31,0,2-.41,2.1-1.39s0.14-6,.14-6l8.08-.64s-0.37,3.38-.37,4.62-0.16,3.27.87,3.35c1.67,0.12,4.25.5,4.25,0.5a5.86,5.86,0,0,1-1,3" style="fill:none;clip-rule:evenodd"/></clipPath><clipPath id="clip-path-10" transform="translate(-2.67 -2.75)"><path d="M30.76,47.08l0,2c0.8,0.86,3.06,2.9,7.92,1.7a10,10,0,0,1,.29-4.65Z" style="fill:none;clip-rule:evenodd"/></clipPath><clipPath id="clip-path-12" transform="translate(-2.67 -2.75)"><path d="M39.88,53.05l-0.5.08c-0.32,0-.77.11-1.31,0.16s-1.18.12-1.86,0.17a0.24,0.24,0,0,0-.12,0l-0.18.16L35.51,54l-0.42.34-0.1.09-0.05,0,0,0,0,0a0.66,0.66,0,0,1-.63.06l0,0,0,0-0.06,0-0.23-.14-0.46-.28-0.45-.28a0.43,0.43,0,0,0-.35-0.13c-0.68,0-1.32,0-1.86,0s-1,0-1.32,0l-0.5,0,0.5-.08c0.32,0,.77-0.11,1.31-0.16s1.18-.12,1.86-0.17a0.78,0.78,0,0,1,.35,0,2,2,0,0,1,.27.14l0.46,0.27,0.47,0.27,0.23,0.14,0.06,0h0.08a0.18,0.18,0,0,0,.1,0h0l0,0,0.05,0L34.78,54l0.42-.34,0.42-.33,0.23-.17A0.7,0.7,0,0,1,36.2,53c0.68,0,1.32,0,1.86,0s1,0,1.32,0l0.5,0" style="fill:none;clip-rule:evenodd"/></clipPath><clipPath id="clip-path-14" transform="translate(-2.67 -2.75)"><path d="M28.62,17.65A15.62,15.62,0,0,0,21.1,32.73c0.72,8.76,3.86,12.79,7.71,15s4.7,2.41,5.44,2.53a5.78,5.78,0,0,0,3.86-1c1.73-1.05,6.62-4.2,7.86-6.55s3.26-9.15,1.85-14a18.22,18.22,0,0,0-6.94-10.3c-3.81-3-9.4-2.35-12.26-.74" style="fill:none;clip-rule:evenodd"/></clipPath><clipPath id="clip-path-16" transform="translate(-2.67 -2.75)"><path d="M35.66,43.69a6,6,0,0,1-3-.4c-0.62-.25-1.76.12-1.11,1.24a5.92,5.92,0,0,0,3.6,2.08A3.17,3.17,0,0,0,38.5,45c1.11-1.82,1.08-2.68.9-3a0.91,0.91,0,0,0-1.33.25,4.08,4.08,0,0,1-2.41,1.45" style="fill:none;clip-rule:evenodd"/></clipPath><clipPath id="clip-path-18" transform="translate(-2.67 -2.75)"><path d="M29.69,34a1.08,1.08,0,1,1-1.08-1.08A1.08,1.08,0,0,1,29.69,34" style="fill:none;clip-rule:evenodd"/></clipPath><clipPath id="clip-path-20" transform="translate(-2.67 -2.75)"><path d="M42.93,34a1.08,1.08,0,1,1-1.08-1.08A1.08,1.08,0,0,1,42.93,34" style="fill:none;clip-rule:evenodd"/></clipPath><clipPath id="clip-path-23" transform="translate(-2.67 -2.75)"><path d="M24.26,33.39l-1.87.37a0.24,0.24,0,0,0-.18.35l0.23,0.45a0.26,0.26,0,0,0,.31.12l1.5-.52V33.39Z" style="fill:none;clip-rule:evenodd"/></clipPath><clipPath id="clip-path-25" transform="translate(-2.67 -2.75)"><path d="M45.91,33.39l1.82,0.37a0.24,0.24,0,0,1,.17.35l-0.22.45a0.25,0.25,0,0,1-.31.12l-1.46-.52V33.39Z" style="fill:none;clip-rule:evenodd"/></clipPath><clipPath id="clip-path-27" transform="translate(-2.67 -2.75)"><path d="M19.57,41.43A11.72,11.72,0,0,0,25,48.87a28.5,28.5,0,0,1-2.5-10c-0.09-2.68.14-5.37,0.25-8a1.15,1.15,0,0,1,1.48-1.25c0.92,0.1,1.87,0,2.8,0a0.64,0.64,0,0,0,.8-0.68c0.09-.94.26-1.88,0.4-2.82h0.11c0.09,1.13.17,2.11,0.26,3.47h3c2.28,0,2.28,0,2.56-2.2a0.4,0.4,0,0,1,.07-0.11,0.79,0.79,0,0,1,.16,0v2.27H39c0.14-1.37.28-2.5,0.41-3.72h0.13c0.09,1.23.18,2.36,0.28,3.72h6.79c0,0.46,0,1.24,0,1.83a68.15,68.15,0,0,1-.34,8.25,54.89,54.89,0,0,1-5.77,16.73c-1.86,3.61-3.94,7.17-5.62,10.85a9,9,0,0,0-.76,2H53.52c-0.13-1.37-.3-2.51-0.51-3.75a73.22,73.22,0,0,1-1.45-15.23c0.16-4,.33-7.92.49-11.88a50.94,50.94,0,0,0-1.26-15.09c-1.22-4.66-3.29-8.72-7.26-11.76-4.67-3.58-13.14-4.15-18,.75a22.12,22.12,0,0,0-5.42,9.51,41.32,41.32,0,0,0-1.32,12.33,37.24,37.24,0,0,0,.78,7.33" style="fill:none;clip-rule:evenodd"/></clipPath><clipPath id="clip-path-28" transform="translate(-2.67 -2.75)"><rect x="14.63" y="7.82" width="39.4" height="60.6" style="fill:none"/></clipPath><clipPath id="clip-path-29" transform="translate(-2.67 -2.75)"><path d="M40.21,32.54a3.39,3.39,0,0,1,3.15,0,0,0,0,0,0,.06,0L43.55,32a0,0,0,0,0,0,0,3.27,3.27,0,0,0-3.23,0l0,0-0.13.54a0,0,0,0,0,.06,0" style="fill:none;clip-rule:evenodd"/></clipPath><clipPath id="clip-path-31" transform="translate(-2.67 -2.75)"><path d="M30.14,32.54a3.39,3.39,0,0,0-3.15,0,0,0,0,0,1-.06,0L26.8,32a0,0,0,0,1,0,0,3.27,3.27,0,0,1,3.23,0l0,0,0.13,0.54a0,0,0,0,1-.06,0" style="fill:none;clip-rule:evenodd"/></clipPath></defs><title>girl</title><ellipse cx="31.67" cy="32.65" rx="31.67" ry="32.65" style="fill:#3d61fe"/><g style="clip-path:url(#clip-path)"><g style="isolation:isolate"><g style="clip-path:url(#clip-path-2)"><g style="clip-path:url(#clip-path-3)"><g style="clip-path:url(#clip-path-4)"><rect x="24.03" y="29.87" width="4.12" height="4.16" style="fill:#fff"/></g></g><g style="clip-path:url(#clip-path-5)"><g style="clip-path:url(#clip-path-6)"><g style="clip-path:url(#clip-path-5)"><rect x="10.18" y="46.86" width="42.78" height="21.14" style="fill:#fde11a"/></g></g></g><rect x="11.97" y="6.53" width="39.4" height="55.16" style="fill:none"/><rect x="11.97" y="48.76" width="39.21" height="12.76" style="fill:none"/><g style="clip-path:url(#clip-path-8)"><g style="clip-path:url(#clip-path-4)"><rect x="21.07" y="39.24" width="21.3" height="18.05" style="fill:#ffe7d5"/></g></g><g style="clip-path:url(#clip-path-10)"><g style="clip-path:url(#clip-path-4)"><rect x="26.6" y="41.92" width="11.13" height="7.94" style="fill:#e5b983"/></g></g><g style="clip-path:url(#clip-path-12)"><g style="clip-path:url(#clip-path-4)"><rect x="24.78" y="48.79" width="13.9" height="4.57" style="fill:#e5b983"/></g></g><g style="clip-path:url(#clip-path-14)"><g style="clip-path:url(#clip-path-4)"><rect x="16.91" y="12.1" width="30.18" height="36.93" style="fill:#ffe7d5"/></g></g><g style="clip-path:url(#clip-path-16)"><g style="clip-path:url(#clip-path-4)"><rect x="27.2" y="37.59" width="11.09" height="7.76" style="fill:#eb2027"/></g></g><g style="clip-path:url(#clip-path-18)"><g style="clip-path:url(#clip-path-4)"><rect x="23.4" y="28.69" width="5.08" height="5.08"/></g></g><g style="clip-path:url(#clip-path-20)"><g style="clip-path:url(#clip-path-4)"><rect x="36.65" y="28.69" width="5.08" height="5.08"/></g></g><g style="clip-path:url(#clip-path-4)"><ellipse cx="25.76" cy="31.4" rx="4.03" ry="3.87" style="fill:none;stroke:#000;stroke-linecap:round;stroke-linejoin:round;stroke-width:0.468725013404764px"/><ellipse cx="39.14" cy="31.4" rx="4.03" ry="3.87" style="fill:none;stroke:#000;stroke-linecap:round;stroke-linejoin:round;stroke-width:0.468725013404764px"/><path d="M32.39,35.32h1.22a2,2,0,0,1,3.32,0h0.85" transform="translate(-2.67 -2.75)" style="fill:none;stroke:#000;stroke-miterlimit:10;stroke-width:0.583717346191406px"/></g><g style="clip-path:url(#clip-path-23)"><g style="clip-path:url(#clip-path-4)"><rect x="18.06" y="29.18" width="4.99" height="4.22"/></g></g><g style="clip-path:url(#clip-path-25)"><g style="clip-path:url(#clip-path-4)"><rect x="41.78" y="29.18" width="4.94" height="4.22"/></g></g><g style="clip-path:url(#clip-path-27)"><g style="clip-path:url(#clip-path-28)"><rect x="14.66" y="3.47" width="37.65" height="63.71" style="fill:#250e0b"/></g></g><g style="clip-path:url(#clip-path-29)"><g style="clip-path:url(#clip-path-4)"><rect x="36.03" y="27.27" width="6.32" height="3.99" style="fill:#250e0b"/></g></g><g style="clip-path:url(#clip-path-31)"><g style="clip-path:url(#clip-path-4)"><rect x="22.67" y="27.27" width="6.32" height="3.99" style="fill:#250e0b"/></g></g></g></g></g></svg>