<svg id="Layer_1" data-name="Layer 1" xmlns="http://www.w3.org/2000/svg" viewBox="0 0 474.16 150.19"><title>logo</title><path d="M60.88,116.88l-1-7.36a20.13,20.13,0,0,1-7.46,6.18q-5.11,2.71-12.88,2.71a38.3,38.3,0,0,1-14.26-2.66,34,34,0,0,1-11.65-7.62A36.63,36.63,0,0,1,5.73,96.24,39.83,39.83,0,0,1,2.82,80.7a38.65,38.65,0,0,1,3-15.54A36,36,0,0,1,26,45.59a39.13,39.13,0,0,1,14.52-2.71A39.71,39.71,0,0,1,54.08,45a34.48,34.48,0,0,1,9.81,5.32,28,28,0,0,1,6.49,7.21,36.28,36.28,0,0,1,3.68,7.77L58.53,70.68a17.41,17.41,0,0,0-1.58-3.83,16.19,16.19,0,0,0-3.32-4.19,17.75,17.75,0,0,0-5.37-3.32A20.22,20.22,0,0,0,40.54,58a23.22,23.22,0,0,0-7.46,1.28,20,20,0,0,0-6.9,4,20.56,20.56,0,0,0-5.06,7.05A24.92,24.92,0,0,0,19.17,80.7a26.55,26.55,0,0,0,1.74,10,20.06,20.06,0,0,0,4.75,7.16,20.43,20.43,0,0,0,7,4.34,23.43,23.43,0,0,0,8.33,1.48,20.89,20.89,0,0,0,7.72-1.28A18.84,18.84,0,0,0,54,99.3a15.07,15.07,0,0,0,3.32-3.88,12.32,12.32,0,0,0,1.48-3.58H37.06V78.14H74v38.74H60.88Z" transform="translate(-2.82 -9.81)" style="fill:#fff"/><path d="M109.43,89.9h-5.72v41.49H87.56v-87h28.72a25.83,25.83,0,0,1,9.66,1.74,21.32,21.32,0,0,1,12.16,12,23.48,23.48,0,0,1,1.69,8.94A21.53,21.53,0,0,1,136,79.83a20.87,20.87,0,0,1-10.53,7.72l14.72,29.34H122.42ZM113.22,76q5,0,7.62-2.45a8.31,8.31,0,0,0,2.61-6.34,8.24,8.24,0,0,0-2.61-6.44q-2.61-2.35-7.62-2.35h-9.51V76h9.51Z" transform="translate(-2.82 -9.81)" style="fill:#fff"/><path d="M148.14,80.7a39,39,0,0,1,3-15.59,35.61,35.61,0,0,1,20.19-19.58,40.82,40.82,0,0,1,29,0,35.72,35.72,0,0,1,20.14,19.58,39,39,0,0,1,3,15.59,38.67,38.67,0,0,1-3,15.54,35.84,35.84,0,0,1-20.14,19.52,40.83,40.83,0,0,1-29,0,35.86,35.86,0,0,1-12-7.62,36.32,36.32,0,0,1-8.18-11.91A38.64,38.64,0,0,1,148.14,80.7Zm16.76-.1a23.79,23.79,0,0,0,1.84,9.81,20,20,0,0,0,4.86,6.8,19.41,19.41,0,0,0,6.75,4,22.73,22.73,0,0,0,15,0,18.93,18.93,0,0,0,6.7-4,20.39,20.39,0,0,0,4.8-6.8,23.78,23.78,0,0,0,1.84-9.81,24.25,24.25,0,0,0-1.84-9.81,19.65,19.65,0,0,0-4.8-6.85,20,20,0,0,0-6.7-4,21.9,21.9,0,0,0-15,0,20.54,20.54,0,0,0-6.75,4,19.31,19.31,0,0,0-4.86,6.85A24.26,24.26,0,0,0,164.9,80.6Z" transform="translate(-2.82 -9.81)" style="fill:#fff"/><path d="M314.31,44.41h16.56l-19.73,72.47H294.47L279,68.84l-15.54,48h-17L226.8,44.41H244l12,46.41,15-46.41h16.56l15,46.51Z" transform="translate(-2.82 -9.81)" style="fill:#fff"/><path d="M374.31,59.85v57H358.16v-57H335.87V44.41h60.82V59.85H374.31Z" transform="translate(-2.82 -9.81)" style="fill:#fff"/><path d="M450.5,116.88V88.06H421.57v30.36H405.42v-74h16.15V72.83H450.5V34.66h16.25v82.22H450.5Z" transform="translate(-2.82 -9.81)" style="fill:#fff"/><polygon points="455.76 0 474.16 31.86 437.37 31.86 455.76 0" style="fill:#fff"/><polygon points="91.81 150.19 73.42 118.33 110.21 118.33 91.81 150.19" style="fill:#fff"/></svg>