<?xml version="1.0" encoding="utf-8"?>
<!-- Generator: Adobe Illustrator 19.0.0, SVG Export Plug-In . SVG Version: 6.00 Build 0)  -->
<svg version="1.1" id="Layer_1" xmlns="http://www.w3.org/2000/svg" xmlns:xlink="http://www.w3.org/1999/xlink" x="0px" y="0px"
	 viewBox="-158 321.8 474.2 150.2" style="enable-background:new -158 321.8 474.2 150.2;" xml:space="preserve">
<style type="text/css">
	.st0{fill:#3D61FE;}
</style>
<title>logo</title>
<path class="st0" d="M-99.9,428.9l-1-7.4c-1.9,2.6-4.5,4.8-7.5,6.2c-3.4,1.8-7.7,2.7-12.9,2.7c-4.9,0-9.7-0.9-14.3-2.7
	c-4.4-1.7-8.3-4.3-11.7-7.6c-3.4-3.4-6.1-7.4-7.9-11.9c-2-4.9-3-10.2-2.9-15.5c-0.1-5.3,0.9-10.6,3-15.5c3.8-9,11.1-16.1,20.2-19.6
	c4.6-1.8,9.6-2.7,14.5-2.7c4.6-0.1,9.2,0.6,13.6,2.1c3.5,1.2,6.9,3,9.8,5.3c2.6,2,4.8,4.4,6.5,7.2c1.5,2.4,2.8,5,3.7,7.8l-15.5,5.4
	c-0.4-1.3-0.9-2.6-1.6-3.8c-0.9-1.6-2-3-3.3-4.2c-1.6-1.4-3.4-2.5-5.4-3.3c-2.5-0.9-5.1-1.4-7.7-1.3c-2.5,0-5.1,0.4-7.5,1.3
	c-2.5,0.9-4.9,2.2-6.9,4c-2.2,2-3.9,4.4-5.1,7c-1.4,3.3-2,6.8-1.9,10.4c-0.1,3.4,0.5,6.8,1.7,10c1,2.7,2.7,5.1,4.8,7.2
	c2,1.9,4.4,3.4,7,4.3c2.7,1,5.5,1.5,8.3,1.5c2.6,0.1,5.3-0.4,7.7-1.3c1.9-0.7,3.7-1.8,5.3-3.1c1.3-1.1,2.4-2.4,3.3-3.9
	c0.7-1.1,1.2-2.3,1.5-3.6h-21.7v-13.7h36.9v38.7C-86.8,428.9-99.9,428.9-99.9,428.9z"/>
<path class="st0" d="M-51.4,401.9h-5.7v41.5h-16.2v-87h28.7c3.3,0,6.6,0.5,9.7,1.7c5.5,2.1,10,6.5,12.2,12c1.1,2.8,1.7,5.9,1.7,8.9
	c0.1,4.5-1.2,9-3.8,12.8c-2.6,3.6-6.3,6.3-10.5,7.7l14.7,29.3h-17.8L-51.4,401.9z M-47.6,388c3.3,0,5.9-0.8,7.6-2.5
	c1.7-1.6,2.7-3.9,2.6-6.3c0.1-2.4-0.8-4.8-2.6-6.4c-1.7-1.6-4.3-2.4-7.6-2.4h-9.5V388H-47.6z"/>
<path class="st0" d="M-12.7,392.7c-0.1-5.3,0.9-10.7,3-15.6c3.8-9,11.1-16.1,20.2-19.6c9.3-3.5,19.7-3.5,29,0
	c9.1,3.5,16.4,10.6,20.1,19.6c2.1,4.9,3.1,10.2,3,15.6c0.1,5.3-0.9,10.6-3,15.5c-3.8,9-11.1,16-20.1,19.5c-9.3,3.5-19.7,3.5-29,0
	c-4.5-1.7-8.5-4.3-12-7.6c-3.5-3.4-6.3-7.4-8.2-11.9C-11.7,403.3-12.8,398-12.7,392.7z M4.1,392.6c-0.1,3.4,0.5,6.7,1.8,9.8
	c1.1,2.6,2.8,4.9,4.9,6.8c2,1.8,4.3,3.1,6.8,4c4.9,1.7,10.1,1.7,15,0c2.5-0.9,4.8-2.2,6.7-4c2.1-1.9,3.7-4.2,4.8-6.8
	c1.3-3.1,1.9-6.4,1.8-9.8c0.1-3.4-0.6-6.7-1.8-9.8c-1.1-2.6-2.7-4.9-4.8-6.9c-1.9-1.8-4.2-3.1-6.7-4c-4.8-1.8-10.2-1.8-15,0
	c-2.5,0.9-4.8,2.2-6.8,4c-2.1,1.9-3.8,4.2-4.9,6.9C4.6,385.9,4,389.2,4.1,392.6z"/>
<path class="st0" d="M153.5,356.4H170l-19.7,72.5h-16.7l-15.5-48l-15.5,48h-17L66,356.4h17.2l12,46.4l15-46.4h16.6l15,46.5
	L153.5,356.4z"/>
<path class="st0" d="M213.5,371.9v57h-16.1v-57H175v-15.4h60.8v15.4H213.5z"/>
<path class="st0" d="M289.7,428.9v-28.8h-28.9v30.4h-16.1v-74h16.1v28.4h28.9v-38.2h16.2v82.2C305.9,428.9,289.7,428.9,289.7,428.9z
	"/>
<polygon class="st0" points="297.8,321.8 316.2,353.7 279.4,353.7 "/>
<polygon class="st0" points="-66.2,472 -84.6,440.1 -47.8,440.1 "/>
</svg>
