<?xml version="1.0" encoding="utf-8"?>
<!-- Generator: Adobe Illustrator 19.2.1, SVG Export Plug-In . SVG Version: 6.00 Build 0)  -->
<svg version="1.1" id="Layer_1" xmlns="http://www.w3.org/2000/svg" xmlns:xlink="http://www.w3.org/1999/xlink" x="0px" y="0px"
	 viewBox="0 0 72 72" style="enable-background:new 0 0 72 72;" xml:space="preserve">
<style type="text/css">
	.st0{clip-path:url(#SVGID_2_);}
	.st1{clip-path:url(#SVGID_4_);fill:#FFFFFF;}
	.st2{clip-path:url(#SVGID_6_);}
	.st3{clip-path:url(#SVGID_8_);enable-background:new    ;}
	.st4{clip-path:url(#SVGID_10_);}
	.st5{clip-path:url(#SVGID_12_);}
	.st6{clip-path:url(#SVGID_14_);fill:#FFFFFF;}
	.st7{clip-path:url(#SVGID_16_);}
	.st8{clip-path:url(#SVGID_18_);fill:#FFFFFF;}
	.st9{clip-path:url(#SVGID_20_);}
	.st10{clip-path:url(#SVGID_22_);fill:#FFFFFF;}
	.st11{clip-path:url(#SVGID_24_);}
	.st12{clip-path:url(#SVGID_26_);fill:#FFFFFF;}
	.st13{clip-path:url(#SVGID_28_);}
	.st14{clip-path:url(#SVGID_30_);fill:#FFFFFF;}
	.st15{clip-path:url(#SVGID_32_);}
	.st16{clip-path:url(#SVGID_34_);fill:#FFFFFF;}
</style>
<g>
	<g>
		<defs>
			<path id="SVGID_1_" d="M1.5,39.4L28,13.9l11.9,12.5l15.9-9.4l-5.4-8.5L71,11.8l-4.1,20.8L61.6,25L39,41.7L24.9,26.8L3.1,41.5
				C1.8,42.3,0.4,40.5,1.5,39.4"/>
		</defs>
		<clipPath id="SVGID_2_">
			<use xlink:href="#SVGID_1_"  style="overflow:visible;"/>
		</clipPath>
		<g class="st0">
			<defs>
				<rect id="SVGID_3_" x="-468.1" y="-1640.8" width="981.6" height="1745.9"/>
			</defs>
			<clipPath id="SVGID_4_">
				<use xlink:href="#SVGID_3_"  style="overflow:visible;"/>
			</clipPath>
			<rect x="-12" y="-4.7" class="st1" width="96.1" height="59.4"/>
		</g>
	</g>
	<g>
		<defs>
			<polygon id="SVGID_5_" points="5,63.6 0.5,63.6 0.5,47.3 9.6,47.3 9.6,63.6 			"/>
		</defs>
		<clipPath id="SVGID_6_">
			<use xlink:href="#SVGID_5_"  style="overflow:visible;"/>
		</clipPath>
		<g class="st2">
			<defs>
				<rect id="SVGID_7_" x="-468.1" y="-1640.8" width="981.6" height="1745.9"/>
			</defs>
			<clipPath id="SVGID_8_">
				<use xlink:href="#SVGID_7_"  style="overflow:visible;"/>
			</clipPath>
			<g class="st3">
				<g>
					<defs>
						<rect id="SVGID_9_" x="0.5" y="44.9" width="10.5" height="20.9"/>
					</defs>
					<clipPath id="SVGID_10_">
						<use xlink:href="#SVGID_9_"  style="overflow:visible;"/>
					</clipPath>
					<g class="st4">
						<defs>
							<path id="SVGID_11_" d="M8.3,63.6H1.7c-0.7,0-1.3-0.6-1.3-1.3V48.6c0-0.7,0.6-1.3,1.3-1.3h6.6c0.7,0,1.3,0.6,1.3,1.3v13.7
								C9.6,63,9,63.6,8.3,63.6"/>
						</defs>
						<clipPath id="SVGID_12_">
							<use xlink:href="#SVGID_11_"  style="overflow:visible;"/>
						</clipPath>
						<g class="st5">
							<defs>
								<rect id="SVGID_13_" x="0.5" y="44.9" width="10.5" height="20.9"/>
							</defs>
							<clipPath id="SVGID_14_">
								<use xlink:href="#SVGID_13_"  style="overflow:visible;"/>
							</clipPath>
							<rect x="-12.6" y="34.3" class="st6" width="35.3" height="42.4"/>
						</g>
					</g>
				</g>
			</g>
		</g>
	</g>
	<g>
		<defs>
			<path id="SVGID_15_" d="M20.5,63.6h-6.6c-0.7,0-1.3-0.6-1.3-1.3V39.3c0-0.7,0.6-1.3,1.3-1.3h6.6c0.7,0,1.3,0.6,1.3,1.3v23.1
				C21.7,63,21.2,63.6,20.5,63.6"/>
		</defs>
		<clipPath id="SVGID_16_">
			<use xlink:href="#SVGID_15_"  style="overflow:visible;"/>
		</clipPath>
		<g class="st7">
			<defs>
				<rect id="SVGID_17_" x="-468.1" y="-1640.8" width="981.6" height="1745.9"/>
			</defs>
			<clipPath id="SVGID_18_">
				<use xlink:href="#SVGID_17_"  style="overflow:visible;"/>
			</clipPath>
			<rect x="-0.5" y="24.9" class="st8" width="35.3" height="51.8"/>
		</g>
	</g>
	<g>
		<defs>
			<path id="SVGID_19_" d="M32.6,63.6H26c-0.7,0-1.3-0.6-1.3-1.3V40.6c0-0.7,0.6-1.3,1.3-1.3h6.6c0.7,0,1.3,0.6,1.3,1.3v21.8
				C33.9,63,33.3,63.6,32.6,63.6"/>
		</defs>
		<clipPath id="SVGID_20_">
			<use xlink:href="#SVGID_19_"  style="overflow:visible;"/>
		</clipPath>
		<g class="st9">
			<defs>
				<rect id="SVGID_21_" x="-468.1" y="-1640.8" width="981.6" height="1745.9"/>
			</defs>
			<clipPath id="SVGID_22_">
				<use xlink:href="#SVGID_21_"  style="overflow:visible;"/>
			</clipPath>
			<rect x="11.6" y="26.2" class="st10" width="35.3" height="50.5"/>
		</g>
	</g>
	<g>
		<defs>
			<path id="SVGID_23_" d="M44.7,63.6h-6.6c-0.7,0-1.3-0.6-1.3-1.3V45.7c0-0.7,0.6-1.3,1.3-1.3h6.6c0.7,0,1.3,0.6,1.3,1.3v16.6
				C46,63,45.4,63.6,44.7,63.6"/>
		</defs>
		<clipPath id="SVGID_24_">
			<use xlink:href="#SVGID_23_"  style="overflow:visible;"/>
		</clipPath>
		<g class="st11">
			<defs>
				<rect id="SVGID_25_" x="-468.1" y="-1640.8" width="981.6" height="1745.9"/>
			</defs>
			<clipPath id="SVGID_26_">
				<use xlink:href="#SVGID_25_"  style="overflow:visible;"/>
			</clipPath>
			<rect x="23.8" y="31.4" class="st12" width="35.3" height="45.3"/>
		</g>
	</g>
	<g>
		<defs>
			<path id="SVGID_27_" d="M56.9,63.6h-6.6c-0.7,0-1.3-0.6-1.3-1.3V40.6c0-0.7,0.6-1.3,1.3-1.3h6.6c0.7,0,1.3,0.6,1.3,1.3v21.8
				C58.1,63,57.6,63.6,56.9,63.6"/>
		</defs>
		<clipPath id="SVGID_28_">
			<use xlink:href="#SVGID_27_"  style="overflow:visible;"/>
		</clipPath>
		<g class="st13">
			<defs>
				<rect id="SVGID_29_" x="-468.1" y="-1640.8" width="981.6" height="1745.9"/>
			</defs>
			<clipPath id="SVGID_30_">
				<use xlink:href="#SVGID_29_"  style="overflow:visible;"/>
			</clipPath>
			<rect x="35.9" y="26.2" class="st14" width="35.3" height="50.5"/>
		</g>
	</g>
	<g>
		<defs>
			<path id="SVGID_31_" d="M69,63.6h-6.6c-0.7,0-1.3-0.6-1.3-1.3V37c0-0.7,0.6-1.3,1.3-1.3H69c0.7,0,1.3,0.6,1.3,1.3v25.3
				C70.3,63,69.7,63.6,69,63.6"/>
		</defs>
		<clipPath id="SVGID_32_">
			<use xlink:href="#SVGID_31_"  style="overflow:visible;"/>
		</clipPath>
		<g class="st15">
			<defs>
				<rect id="SVGID_33_" x="-468.1" y="-1640.8" width="981.6" height="1745.9"/>
			</defs>
			<clipPath id="SVGID_34_">
				<use xlink:href="#SVGID_33_"  style="overflow:visible;"/>
			</clipPath>
			<rect x="48" y="22.7" class="st16" width="35.3" height="54"/>
		</g>
	</g>
</g>
</svg>
