<?xml version="1.0" encoding="utf-8"?>
<!-- Generator: Adobe Illustrator 19.2.1, SVG Export Plug-In . SVG Version: 6.00 Build 0)  -->
<svg version="1.1" xmlns="http://www.w3.org/2000/svg" xmlns:xlink="http://www.w3.org/1999/xlink" x="0px" y="0px"
	 viewBox="0 0 72 72" style="enable-background:new 0 0 72 72;" xml:space="preserve">
<style type="text/css">
	.st0{display:none;}
	.st1{display:inline;fill:#FFFFFF;}
	.st2{display:inline;fill:none;stroke:#FFFFFF;stroke-width:6;stroke-miterlimit:10;}
	.st3{display:inline;fill:none;stroke:#FFFFFF;stroke-width:4;stroke-miterlimit:10;}
	.st4{display:inline;}
	.st5{fill:#FFFFFF;}
</style>
<g id="Layer_1" class="st0">
	<path class="st1" d="M62.4,71H9.6c-0.7,0-1.3-0.6-1.3-1.3V3.6c0-0.7,0.6-1.3,1.3-1.3h52.7c0.7,0,1.3,0.6,1.3,1.3v66.1
		C63.7,70.4,63.1,71,62.4,71z M15.6,65h40.7c0.7,0,1.3-0.6,1.3-1.3V9.6c0-0.7-0.6-1.3-1.3-1.3H15.6c-0.7,0-1.3,0.6-1.3,1.3v54.1
		C14.3,64.4,14.9,65,15.6,65z"/>
	<path class="st1" d="M32.8,59.7L26.4,52c-0.6-0.7-1.8-0.6-2.2,0.3l-2.3,4.9c-0.3,0.6-1.1,0.9-1.7,0.6l-1.3-0.6
		c-0.6-0.3-0.9-1.1-0.6-1.7l4.9-10.7c0.4-0.9,1.6-1,2.2-0.3l6.3,7.6c0.6,0.7,1.8,0.6,2.2-0.3l3.9-8.8c0.4-0.9,1.7-1,2.2-0.2l5.5,7.8
		c0.6,0.8,1.8,0.7,2.2-0.2l2.5-5.1c0.3-0.6,1.1-0.9,1.7-0.6l1.3,0.6c0.6,0.3,0.9,1.1,0.6,1.7l-5.5,11.2c-0.4,0.9-1.6,1-2.2,0.2
		l-5.3-7.5c-0.6-0.8-1.8-0.7-2.2,0.2L35,59.4C34.6,60.2,33.4,60.4,32.8,59.7z"/>
	<path class="st1" d="M51.3,19H20.9c-0.7,0-1.3-0.6-1.3-1.3v-1.4c0-0.7,0.6-1.3,1.3-1.3h30.4c0.7,0,1.3,0.6,1.3,1.3v1.4
		C52.6,18.4,52,19,51.3,19z"/>
	<path class="st1" d="M51.3,26.9H20.9c-0.7,0-1.3-0.6-1.3-1.3v-1.4c0-0.7,0.6-1.3,1.3-1.3h30.4c0.7,0,1.3,0.6,1.3,1.3v1.4
		C52.6,26.3,52,26.9,51.3,26.9z"/>
	<path class="st1" d="M51.3,34.7H20.9c-0.7,0-1.3-0.6-1.3-1.3V32c0-0.7,0.6-1.3,1.3-1.3h30.4c0.7,0,1.3,0.6,1.3,1.3v1.4
		C52.6,34.2,52,34.7,51.3,34.7z"/>
	<rect x="171.1" y="7.3" class="st2" width="49.3" height="62.7"/>
	<polyline class="st3" points="179.3,59.5 184.3,48.7 193.3,59.5 198.8,47 206.8,58.2 212.3,47 	"/>
	<line class="st3" x1="179.3" y1="19" x2="212.3" y2="19"/>
	<line class="st3" x1="179.3" y1="26.9" x2="212.3" y2="26.9"/>
	<line class="st3" x1="179.3" y1="34.8" x2="212.3" y2="34.8"/>
	<g id="yJ2TyX.tif" class="st4">
		
			<image style="overflow:visible;" width="1500" height="1600" id="Layer_0_1_" xlink:href="6B1F071320084BA0.png"  transform="matrix(7.666667e-02 0 0 7.666667e-02 357.6667 -32.3333)">
		</image>
	</g>
</g>
<g id="Layer_2">
	<g transform="translate(0.000000,512.000000) scale(0.100000,-0.100000)">
		<path class="st5" d="M196.6,5033.9c-85.8-24.5-160.2-45.7-165.3-47.3c-14.5-4.7-21.8-14.9-18.6-26.3c1.8-6.4,5.9-11.5,11.9-14.5
			c2.9-1.4,77.2-28,165.1-59.1c156.5-55.3,160.3-56.6,170.3-56.5c10,0,13.8,1.2,134.9,44.1c68.5,24.2,125.5,44.1,126.3,44.1
			c1,0,3-2.9,4.7-6.4c2.7-6,3-9.2,3.4-40.8l0.5-34.3l-4.5-4.7c-11.2-12-14.6-31.1-8.1-46.1l3-7.3l-3-7c-5.9-14-3.4-29.8,9-54.9
			c5.3-10.9,22.3-38.6,28-46l2.5-3.1l10.5,16c17.6,26.8,28.6,49.7,31.3,65.9c1.1,6.8-1.4,19.7-5.1,26.4c-2.5,4.5-2.6,5.2-0.7,8.2
			c3.3,5.2,5.2,18.1,3.7,25.9c-1.5,7.9-4.2,13.7-9.7,20.7l-4,5.1v34.3c0,36.1-1.4,49-6.8,61.2l-2.5,5.6l11.4,4.4
			c12.9,4.9,17.5,8.1,20.8,14.2c5.2,10.3,0.7,22.6-10.3,28.2c-2.7,1.4-78.1,23.3-167.3,48.6c-119,33.8-164,46-169,45.8
			C354.9,5078.2,299.6,5063,196.6,5033.9z M373.1,4990.6c11.9-1.6,20.7-5.7,23.4-10.9c1.8-3.6,1.8-4.4,0-7.9
			c-6.4-12.2-46.2-16.1-65.1-6.6C306.2,4978.1,335.6,4996.1,373.1,4990.6z"/>
		<path class="st5" d="M143.9,4801.7c0-26.5,0.1-50.5,0-53.1c0-4.5-0.5-5.1-7.1-8.2c-16.8-7.8-33.4-31.2-39.4-55.1
			c-7.8-31.3-3.6-56,14.2-80.9c11.9-16.7,35.8-36.5,52.7-43.4c6-2.6,6.7-3.4,8.8-10c1.2-3.8,5.1-12.9,8.5-20
			c26.5-54.3,82.4-98.9,146.9-117.2c11.4-3.3,15.6-3.8,31.6-3.8s20.2,0.5,31.6,3.8c62.9,17.8,119.3,62.1,145.3,113.8
			c3.3,6.8,7.5,16.1,9.2,20.9l3.1,8.5l11.1,5.3c13.7,6.6,22,12.5,34.1,24.4c16.3,16.1,27.6,36.4,31.1,55.1c1.9,10.1,1,27.2-2.2,41
			c-2.9,12.4-12.9,32.2-21.1,41.3c-5.9,6.7-20,17.5-24.6,19.2c-1.1,0.3-1.5,16.6-1.4,53.5c0,29.1-0.1,52.9-0.4,52.9
			c-0.4,0-47.1-17.1-103.7-37.9c-95.6-35.2-103.8-37.9-112.1-37.9s-16.3,2.6-112.1,37.9c-56.6,20.8-103.3,37.9-103.7,37.9
			C144.1,4849.9,143.9,4828.1,143.9,4801.7z M280.1,4738.5l79.4-10.1l83,10.4c45.7,5.7,83.5,10,84,9.6c0.4-0.5,1.6-7.5,2.6-15.7
			c1-8.1,2.3-16.3,3.1-18.2c3.1-7.8,10.9-12.9,24.2-15.7c5.7-1.2,13.5-10.1,17.1-19.4c3.8-10,5.2-28.5,2.6-34.9
			c-5.2-12.9-18.9-28.3-31.5-35.7c-3.4-2.1-10.5-4.8-15.7-6c-15.7-3.8-20.1-8.6-25.2-27.1c-3.6-13.3-11.4-30.1-19.2-41.9
			c-8.5-12.6-32.8-36.1-46.9-45.4c-29.8-19.7-64.8-32.6-82.6-30.5c-10.9,1.2-32.3,8.5-47.3,16c-37.8,18.9-67,46.7-82.4,78.3
			c-3.3,7-7.3,17.1-8.8,22.6c-1.5,5.5-4.1,12.6-5.9,15.7c-3.3,5.9-11.8,11.9-17,11.9c-6.7,0-23,10-33.4,20.4
			c-13.7,13.5-17.8,21.8-17.8,35.2c0,16.1,6.4,32.4,15,38.4c1.6,1.1,6.7,2.9,11.2,4c15.6,3.7,19.7,9.6,22.4,31.9
			c1,8.8,1.9,16,1.9,16.3C193.3,4749.3,207.3,4747.7,280.1,4738.5z"/>
		<path class="st5" d="M255.4,4699c-18.5-6.2-28.5-19.4-28.5-37.9c0-22,16.6-38.7,38.4-38.7c42.1,0,54.7,57.3,16.3,74.3
			C273.4,4700.3,262.6,4701.3,255.4,4699z"/>
		<path class="st5" d="M444.2,4699c-18.5-6.2-28.6-19.7-28.6-37.9c0-42.3,57.6-53.9,74.8-15.2c6,13.5,2.3,32.6-8.3,43
			C472.4,4698.3,455.7,4702.8,444.2,4699z"/>
	</g>
</g>
</svg>
