<?xml version="1.0" encoding="utf-8"?>
<!-- Generator: Adobe Illustrator 19.2.1, SVG Export Plug-In . SVG Version: 6.00 Build 0)  -->
<svg version="1.1" id="Layer_1" xmlns="http://www.w3.org/2000/svg" xmlns:xlink="http://www.w3.org/1999/xlink" x="0px" y="0px"
	 viewBox="0 0 72 72" style="enable-background:new 0 0 72 72;" xml:space="preserve">
<style type="text/css">
	.st0{clip-path:url(#SVGID_2_);}
	.st1{clip-path:url(#SVGID_4_);fill:#FFFFFF;}
	.st2{clip-path:url(#SVGID_6_);}
	.st3{clip-path:url(#SVGID_8_);enable-background:new    ;}
	.st4{clip-path:url(#SVGID_10_);}
	.st5{clip-path:url(#SVGID_12_);}
	.st6{clip-path:url(#SVGID_14_);fill:#FFFFFF;}
	.st7{clip-path:url(#SVGID_16_);}
	.st8{clip-path:url(#SVGID_18_);fill:#FFFFFF;}
	.st9{clip-path:url(#SVGID_20_);}
	.st10{clip-path:url(#SVGID_22_);fill:#FFFFFF;}
	.st11{clip-path:url(#SVGID_24_);}
	.st12{clip-path:url(#SVGID_26_);fill:#FFFFFF;}
	.st13{clip-path:url(#SVGID_28_);}
	.st14{clip-path:url(#SVGID_30_);fill:#FFFFFF;}
	.st15{clip-path:url(#SVGID_32_);}
	.st16{clip-path:url(#SVGID_34_);fill:#FFFFFF;}
	.st17{fill:none;stroke:#FFFFFF;stroke-width:9;stroke-miterlimit:10;}
	.st18{fill:#FFFFFF;}
</style>
<g>
	<g>
		<defs>
			<path id="SVGID_1_" d="M81.5,39.4L108,13.9l11.9,12.5l15.9-9.4l-5.4-8.5l20.6,3.4l-4.1,20.8l-5.3-7.5L119,41.7l-14.1-14.9
				L83.1,41.5C81.8,42.3,80.4,40.5,81.5,39.4"/>
		</defs>
		<clipPath id="SVGID_2_">
			<use xlink:href="#SVGID_1_"  style="overflow:visible;"/>
		</clipPath>
		<g class="st0">
			<defs>
				<rect id="SVGID_3_" x="-388.1" y="-1640.8" width="981.6" height="1745.9"/>
			</defs>
			<clipPath id="SVGID_4_">
				<use xlink:href="#SVGID_3_"  style="overflow:visible;"/>
			</clipPath>
			<rect x="68" y="-4.7" class="st1" width="96.1" height="59.4"/>
		</g>
	</g>
	<g>
		<defs>
			<polygon id="SVGID_5_" points="85,63.6 80.5,63.6 80.5,47.3 89.6,47.3 89.6,63.6 			"/>
		</defs>
		<clipPath id="SVGID_6_">
			<use xlink:href="#SVGID_5_"  style="overflow:visible;"/>
		</clipPath>
		<g class="st2">
			<defs>
				<rect id="SVGID_7_" x="-388.1" y="-1640.8" width="981.6" height="1745.9"/>
			</defs>
			<clipPath id="SVGID_8_">
				<use xlink:href="#SVGID_7_"  style="overflow:visible;"/>
			</clipPath>
			<g class="st3">
				<g>
					<defs>
						<rect id="SVGID_9_" x="80.5" y="44.9" width="10.5" height="20.9"/>
					</defs>
					<clipPath id="SVGID_10_">
						<use xlink:href="#SVGID_9_"  style="overflow:visible;"/>
					</clipPath>
					<g class="st4">
						<defs>
							<path id="SVGID_11_" d="M88.3,63.6h-6.6c-0.7,0-1.3-0.6-1.3-1.3V48.6c0-0.7,0.6-1.3,1.3-1.3h6.6c0.7,0,1.3,0.6,1.3,1.3v13.7
								C89.6,63,89,63.6,88.3,63.6"/>
						</defs>
						<clipPath id="SVGID_12_">
							<use xlink:href="#SVGID_11_"  style="overflow:visible;"/>
						</clipPath>
						<g class="st5">
							<defs>
								<rect id="SVGID_13_" x="80.5" y="44.9" width="10.5" height="20.9"/>
							</defs>
							<clipPath id="SVGID_14_">
								<use xlink:href="#SVGID_13_"  style="overflow:visible;"/>
							</clipPath>
							<rect x="67.4" y="34.3" class="st6" width="35.3" height="42.4"/>
						</g>
					</g>
				</g>
			</g>
		</g>
	</g>
	<g>
		<defs>
			<path id="SVGID_15_" d="M100.5,63.6h-6.6c-0.7,0-1.3-0.6-1.3-1.3V39.3c0-0.7,0.6-1.3,1.3-1.3h6.6c0.7,0,1.3,0.6,1.3,1.3v23.1
				C101.7,63,101.2,63.6,100.5,63.6"/>
		</defs>
		<clipPath id="SVGID_16_">
			<use xlink:href="#SVGID_15_"  style="overflow:visible;"/>
		</clipPath>
		<g class="st7">
			<defs>
				<rect id="SVGID_17_" x="-388.1" y="-1640.8" width="981.6" height="1745.9"/>
			</defs>
			<clipPath id="SVGID_18_">
				<use xlink:href="#SVGID_17_"  style="overflow:visible;"/>
			</clipPath>
			<rect x="79.5" y="24.9" class="st8" width="35.3" height="51.8"/>
		</g>
	</g>
	<g>
		<defs>
			<path id="SVGID_19_" d="M112.6,63.6H106c-0.7,0-1.3-0.6-1.3-1.3V40.6c0-0.7,0.6-1.3,1.3-1.3h6.6c0.7,0,1.3,0.6,1.3,1.3v21.8
				C113.9,63,113.3,63.6,112.6,63.6"/>
		</defs>
		<clipPath id="SVGID_20_">
			<use xlink:href="#SVGID_19_"  style="overflow:visible;"/>
		</clipPath>
		<g class="st9">
			<defs>
				<rect id="SVGID_21_" x="-388.1" y="-1640.8" width="981.6" height="1745.9"/>
			</defs>
			<clipPath id="SVGID_22_">
				<use xlink:href="#SVGID_21_"  style="overflow:visible;"/>
			</clipPath>
			<rect x="91.6" y="26.2" class="st10" width="35.3" height="50.5"/>
		</g>
	</g>
	<g>
		<defs>
			<path id="SVGID_23_" d="M124.7,63.6h-6.6c-0.7,0-1.3-0.6-1.3-1.3V45.7c0-0.7,0.6-1.3,1.3-1.3h6.6c0.7,0,1.3,0.6,1.3,1.3v16.6
				C126,63,125.4,63.6,124.7,63.6"/>
		</defs>
		<clipPath id="SVGID_24_">
			<use xlink:href="#SVGID_23_"  style="overflow:visible;"/>
		</clipPath>
		<g class="st11">
			<defs>
				<rect id="SVGID_25_" x="-388.1" y="-1640.8" width="981.6" height="1745.9"/>
			</defs>
			<clipPath id="SVGID_26_">
				<use xlink:href="#SVGID_25_"  style="overflow:visible;"/>
			</clipPath>
			<rect x="103.8" y="31.4" class="st12" width="35.3" height="45.3"/>
		</g>
	</g>
	<g>
		<defs>
			<path id="SVGID_27_" d="M136.9,63.6h-6.6c-0.7,0-1.3-0.6-1.3-1.3V40.6c0-0.7,0.6-1.3,1.3-1.3h6.6c0.7,0,1.3,0.6,1.3,1.3v21.8
				C138.1,63,137.6,63.6,136.9,63.6"/>
		</defs>
		<clipPath id="SVGID_28_">
			<use xlink:href="#SVGID_27_"  style="overflow:visible;"/>
		</clipPath>
		<g class="st13">
			<defs>
				<rect id="SVGID_29_" x="-388.1" y="-1640.8" width="981.6" height="1745.9"/>
			</defs>
			<clipPath id="SVGID_30_">
				<use xlink:href="#SVGID_29_"  style="overflow:visible;"/>
			</clipPath>
			<rect x="115.9" y="26.2" class="st14" width="35.3" height="50.5"/>
		</g>
	</g>
	<g>
		<defs>
			<path id="SVGID_31_" d="M149,63.6h-6.6c-0.7,0-1.3-0.6-1.3-1.3V37c0-0.7,0.6-1.3,1.3-1.3h6.6c0.7,0,1.3,0.6,1.3,1.3v25.3
				C150.3,63,149.7,63.6,149,63.6"/>
		</defs>
		<clipPath id="SVGID_32_">
			<use xlink:href="#SVGID_31_"  style="overflow:visible;"/>
		</clipPath>
		<g class="st15">
			<defs>
				<rect id="SVGID_33_" x="-388.1" y="-1640.8" width="981.6" height="1745.9"/>
			</defs>
			<clipPath id="SVGID_34_">
				<use xlink:href="#SVGID_33_"  style="overflow:visible;"/>
			</clipPath>
			<rect x="128" y="22.7" class="st16" width="35.3" height="54"/>
		</g>
	</g>
</g>
<circle class="st17" cx="233.5" cy="29.4" r="19.2"/>
<line class="st17" x1="217.3" y1="42.8" x2="199.5" y2="60.5"/>
<path class="st18" d="M42.3,57.2c-13.1,0-23.8-10.7-23.8-23.8S29.2,9.6,42.3,9.6s23.8,10.7,23.8,23.8S55.4,57.2,42.3,57.2z
	 M42.3,18.9c-8,0-14.5,6.5-14.5,14.5c0,8,6.5,14.5,14.5,14.5s14.5-6.5,14.5-14.5C56.8,25.4,50.3,18.9,42.3,18.9z"/>
<path class="st18" d="M10.2,66.4l-3.7-3.7c-0.8-0.8-0.8-2,0-2.8l16.3-16.3l6.6,6.6L13,66.4C12.3,67.2,11,67.2,10.2,66.4z"/>
</svg>
