<?xml version="1.0" encoding="utf-8"?>
<!-- Generator: Adobe Illustrator 19.2.1, SVG Export Plug-In . SVG Version: 6.00 Build 0)  -->
<svg version="1.1" id="Layer_1" xmlns="http://www.w3.org/2000/svg" xmlns:xlink="http://www.w3.org/1999/xlink" x="0px" y="0px"
	 viewBox="0 0 72 72" style="enable-background:new 0 0 72 72;" xml:space="preserve">
<style type="text/css">
	.st0{clip-path:url(#SVGID_2_);}
	.st1{clip-path:url(#SVGID_4_);enable-background:new    ;}
	.st2{clip-path:url(#SVGID_6_);}
	.st3{clip-path:url(#SVGID_8_);}
	.st4{clip-path:url(#SVGID_10_);fill:#FFFFFF;}
	.st5{clip-path:url(#SVGID_12_);}
	.st6{clip-path:url(#SVGID_14_);enable-background:new    ;}
	.st7{clip-path:url(#SVGID_16_);}
	.st8{clip-path:url(#SVGID_18_);}
	.st9{clip-path:url(#SVGID_20_);fill:#FFFFFF;}
</style>
<g>
	<defs>
		<rect id="SVGID_1_" x="12" y="13" width="47.9" height="49.3"/>
	</defs>
	<clipPath id="SVGID_2_">
		<use xlink:href="#SVGID_1_"  style="overflow:visible;"/>
	</clipPath>
	<g class="st0">
		<defs>
			<rect id="SVGID_3_" x="-26.4" y="-33" width="136.9" height="151.3"/>
		</defs>
		<clipPath id="SVGID_4_">
			<use xlink:href="#SVGID_3_"  style="overflow:visible;"/>
		</clipPath>
		<g class="st1">
			<g>
				<defs>
					<rect id="SVGID_5_" x="12" y="12.6" width="48" height="50.4"/>
				</defs>
				<clipPath id="SVGID_6_">
					<use xlink:href="#SVGID_5_"  style="overflow:visible;"/>
				</clipPath>
				<g class="st2">
					<defs>
						<path id="SVGID_7_" d="M59.8,62.2H12.2C11.8,60.5,12,59,13.5,58c3.6-2.6,4.8-6,4.3-10.5c-0.4-3.8-0.3-7.8,0.1-11.6
							c0.8-8.1,5.2-13.4,12.5-16.1c1-0.4,1.4-0.7,1.4-1.9c0-3,1.7-4.8,4.2-4.8c2.5,0,4.1,1.9,4.1,5c0,0.4,0,0.8,0,1.2
							c0.5,0.2,1,0.3,1.5,0.5c7.3,2.5,12.4,9.5,12.5,17.4c0.1,5,0,10.1,0.1,15.1c0,0.8,0.5,1.7,1,2.4c0.9,1.2,2,2.3,3.1,3.2
							C59.8,59,60.2,60.4,59.8,62.2"/>
					</defs>
					<clipPath id="SVGID_8_">
						<use xlink:href="#SVGID_7_"  style="overflow:visible;"/>
					</clipPath>
					<g class="st3">
						<defs>
							<rect id="SVGID_9_" x="12" y="12.6" width="48" height="50.4"/>
						</defs>
						<clipPath id="SVGID_10_">
							<use xlink:href="#SVGID_9_"  style="overflow:visible;"/>
						</clipPath>
						<rect x="0" y="1" class="st4" width="71.9" height="73.3"/>
					</g>
				</g>
			</g>
		</g>
	</g>
</g>
<g>
	<defs>
		<rect id="SVGID_11_" x="30.4" y="66.3" width="11" height="5.7"/>
	</defs>
	<clipPath id="SVGID_12_">
		<use xlink:href="#SVGID_11_"  style="overflow:visible;"/>
	</clipPath>
	<g class="st5">
		<defs>
			<rect id="SVGID_13_" x="-26.4" y="-32" width="136.9" height="151.3"/>
		</defs>
		<clipPath id="SVGID_14_">
			<use xlink:href="#SVGID_13_"  style="overflow:visible;"/>
		</clipPath>
		<g class="st6">
			<g>
				<defs>
					<rect id="SVGID_15_" x="28.9" y="64.1" width="14.4" height="9.6"/>
				</defs>
				<clipPath id="SVGID_16_">
					<use xlink:href="#SVGID_15_"  style="overflow:visible;"/>
				</clipPath>
				<g class="st7">
					<defs>
						<path id="SVGID_17_" d="M30.4,66.3h11c0.1,3.1-2.3,5.6-5.3,5.7C33.1,72.2,30.5,69.6,30.4,66.3"/>
					</defs>
					<clipPath id="SVGID_18_">
						<use xlink:href="#SVGID_17_"  style="overflow:visible;"/>
					</clipPath>
					<g class="st8">
						<defs>
							<rect id="SVGID_19_" x="28.9" y="64.1" width="14.4" height="9.6"/>
						</defs>
						<clipPath id="SVGID_20_">
							<use xlink:href="#SVGID_19_"  style="overflow:visible;"/>
						</clipPath>
						<rect x="18.4" y="54.3" class="st9" width="35.1" height="29.8"/>
					</g>
				</g>
			</g>
		</g>
	</g>
</g>
</svg>
