<?xml version="1.0" encoding="utf-8"?>
<!-- Generator: Adobe Illustrator 19.2.1, SVG Export Plug-In . SVG Version: 6.00 Build 0)  -->
<svg version="1.1" id="Layer_1" xmlns="http://www.w3.org/2000/svg" xmlns:xlink="http://www.w3.org/1999/xlink" x="0px" y="0px"
	 viewBox="0 0 72 72" style="enable-background:new 0 0 72 72;" xml:space="preserve">
<style type="text/css">
	.st0{fill:#FFFFFF;}
</style>
<path class="st0" d="M45.7,1.4H11.8v69.2h53.3V21.6L45.7,1.4z M46.6,10.4l9.2,9.5h-9.2V10.4z M59.6,65H17.4V7h25v17.1h17.1L59.6,65
	L59.6,65z"/>
<path class="st0" d="M48.9,27.8h5.6c1.1,0,2,0.9,2,2v30.3c0,1.1-0.9,2-2,2h-5.6c-1.1,0-2-0.9-2-2V29.8
	C46.9,28.7,47.8,27.8,48.9,27.8z"/>
<path class="st0" d="M35.7,33.8h5.6c1.1,0,2,0.9,2,2v24.3c0,1.1-0.9,2-2,2h-5.6c-1.1,0-2-0.9-2-2V35.8
	C33.7,34.7,34.6,33.8,35.7,33.8z"/>
<path class="st0" d="M22.5,23.7h5.6c1.1,0,2,0.9,2,2v34.5c0,1.1-0.9,2-2,2h-5.6c-1.1,0-2-0.9-2-2V25.6
	C20.5,24.5,21.4,23.7,22.5,23.7z"/>
</svg>
